<svg xmlns="http://www.w3.org/2000/svg" viewBox="-300 -170 600 340">
<title>IR — Recompete Radar Eye</title>
<defs>
  <filter id="glow" x="-60%" y="-60%" width="220%" height="220%">
    <feGaussianBlur stdDeviation="6" result="b"/>
    <feMerge><feMergeNode in="b"/><feMergeNode in="SourceGraphic"/></feMerge>
  </filter>
</defs>
<g filter="url(#glow)" stroke="#C41230" stroke-linecap="round">
  <g stroke-width="2.2" stroke-opacity="0.42" fill="none"><line x1="0.0" y1="0.0" x2="114.3" y2="-33.0"/><line x1="0.0" y1="0.0" x2="114.3" y2="33.0"/><line x1="0.0" y1="0.0" x2="0.0" y2="66.0"/><line x1="0.0" y1="0.0" x2="-114.3" y2="33.0"/><line x1="0.0" y1="0.0" x2="-114.3" y2="-33.0"/><line x1="0.0" y1="0.0" x2="0.0" y2="-66.0"/><line x1="0.0" y1="0.0" x2="246.3" y2="0.0"/><line x1="0.0" y1="0.0" x2="123.2" y2="106.7"/><line x1="0.0" y1="0.0" x2="-123.2" y2="106.7"/><line x1="0.0" y1="0.0" x2="-246.3" y2="0.0"/><line x1="0.0" y1="0.0" x2="-123.2" y2="-106.7"/><line x1="0.0" y1="0.0" x2="123.2" y2="-106.7"/><line x1="114.3" y1="-33.0" x2="114.3" y2="33.0"/><line x1="114.3" y1="-33.0" x2="0.0" y2="66.0"/><line x1="114.3" y1="-33.0" x2="-114.3" y2="33.0"/><line x1="114.3" y1="-33.0" x2="-114.3" y2="-33.0"/><line x1="114.3" y1="-33.0" x2="0.0" y2="-66.0"/><line x1="114.3" y1="-33.0" x2="246.3" y2="0.0"/><line x1="114.3" y1="-33.0" x2="123.2" y2="106.7"/><line x1="114.3" y1="-33.0" x2="-123.2" y2="106.7"/><line x1="114.3" y1="-33.0" x2="-246.3" y2="0.0"/><line x1="114.3" y1="-33.0" x2="-123.2" y2="-106.7"/><line x1="114.3" y1="-33.0" x2="123.2" y2="-106.7"/><line x1="114.3" y1="33.0" x2="0.0" y2="66.0"/><line x1="114.3" y1="33.0" x2="-114.3" y2="33.0"/><line x1="114.3" y1="33.0" x2="-114.3" y2="-33.0"/><line x1="114.3" y1="33.0" x2="0.0" y2="-66.0"/><line x1="114.3" y1="33.0" x2="246.3" y2="0.0"/><line x1="114.3" y1="33.0" x2="123.2" y2="106.7"/><line x1="114.3" y1="33.0" x2="-123.2" y2="106.7"/><line x1="114.3" y1="33.0" x2="-246.3" y2="0.0"/><line x1="114.3" y1="33.0" x2="-123.2" y2="-106.7"/><line x1="114.3" y1="33.0" x2="123.2" y2="-106.7"/><line x1="0.0" y1="66.0" x2="-114.3" y2="33.0"/><line x1="0.0" y1="66.0" x2="-114.3" y2="-33.0"/><line x1="0.0" y1="66.0" x2="0.0" y2="-66.0"/><line x1="0.0" y1="66.0" x2="246.3" y2="0.0"/><line x1="0.0" y1="66.0" x2="123.2" y2="106.7"/><line x1="0.0" y1="66.0" x2="-123.2" y2="106.7"/><line x1="0.0" y1="66.0" x2="-246.3" y2="0.0"/><line x1="0.0" y1="66.0" x2="-123.2" y2="-106.7"/><line x1="0.0" y1="66.0" x2="123.2" y2="-106.7"/><line x1="-114.3" y1="33.0" x2="-114.3" y2="-33.0"/><line x1="-114.3" y1="33.0" x2="0.0" y2="-66.0"/><line x1="-114.3" y1="33.0" x2="246.3" y2="0.0"/><line x1="-114.3" y1="33.0" x2="123.2" y2="106.7"/><line x1="-114.3" y1="33.0" x2="-123.2" y2="106.7"/><line x1="-114.3" y1="33.0" x2="-246.3" y2="0.0"/><line x1="-114.3" y1="33.0" x2="-123.2" y2="-106.7"/><line x1="-114.3" y1="33.0" x2="123.2" y2="-106.7"/><line x1="-114.3" y1="-33.0" x2="0.0" y2="-66.0"/><line x1="-114.3" y1="-33.0" x2="246.3" y2="0.0"/><line x1="-114.3" y1="-33.0" x2="123.2" y2="106.7"/><line x1="-114.3" y1="-33.0" x2="-123.2" y2="106.7"/><line x1="-114.3" y1="-33.0" x2="-246.3" y2="0.0"/><line x1="-114.3" y1="-33.0" x2="-123.2" y2="-106.7"/><line x1="-114.3" y1="-33.0" x2="123.2" y2="-106.7"/><line x1="0.0" y1="-66.0" x2="246.3" y2="0.0"/><line x1="0.0" y1="-66.0" x2="123.2" y2="106.7"/><line x1="0.0" y1="-66.0" x2="-123.2" y2="106.7"/><line x1="0.0" y1="-66.0" x2="-246.3" y2="0.0"/><line x1="0.0" y1="-66.0" x2="-123.2" y2="-106.7"/><line x1="0.0" y1="-66.0" x2="123.2" y2="-106.7"/><line x1="246.3" y1="0.0" x2="123.2" y2="106.7"/><line x1="246.3" y1="0.0" x2="-123.2" y2="106.7"/><line x1="246.3" y1="0.0" x2="-246.3" y2="0.0"/><line x1="246.3" y1="0.0" x2="-123.2" y2="-106.7"/><line x1="246.3" y1="0.0" x2="123.2" y2="-106.7"/><line x1="123.2" y1="106.7" x2="-123.2" y2="106.7"/><line x1="123.2" y1="106.7" x2="-246.3" y2="0.0"/><line x1="123.2" y1="106.7" x2="-123.2" y2="-106.7"/><line x1="123.2" y1="106.7" x2="123.2" y2="-106.7"/><line x1="-123.2" y1="106.7" x2="-246.3" y2="0.0"/><line x1="-123.2" y1="106.7" x2="-123.2" y2="-106.7"/><line x1="-123.2" y1="106.7" x2="123.2" y2="-106.7"/><line x1="-246.3" y1="0.0" x2="-123.2" y2="-106.7"/><line x1="-246.3" y1="0.0" x2="123.2" y2="-106.7"/><line x1="-123.2" y1="-106.7" x2="123.2" y2="-106.7"/></g>
  <circle cx="114.3" cy="-33.0" r="7" fill="#C41230" stroke="none"/><circle cx="114.3" cy="33.0" r="7" fill="#C41230" stroke="none"/><circle cx="0.0" cy="66.0" r="7" fill="#C41230" stroke="none"/><circle cx="-114.3" cy="33.0" r="7" fill="#C41230" stroke="none"/><circle cx="-114.3" cy="-33.0" r="7" fill="#C41230" stroke="none"/><circle cx="0.0" cy="-66.0" r="7" fill="#C41230" stroke="none"/><circle cx="246.3" cy="0.0" r="7" fill="#C41230" stroke="none"/><circle cx="123.2" cy="106.7" r="7" fill="#C41230" stroke="none"/><circle cx="-123.2" cy="106.7" r="7" fill="#C41230" stroke="none"/><circle cx="-246.3" cy="0.0" r="7" fill="#C41230" stroke="none"/><circle cx="-123.2" cy="-106.7" r="7" fill="#C41230" stroke="none"/><circle cx="123.2" cy="-106.7" r="7" fill="#C41230" stroke="none"/>
  <path d="M-246.3 0.0L-123.2 -106.7L123.2 -106.7L246.3 0.0" fill="none" stroke-width="5" stroke-opacity="0.95"/>
  <circle cx="0" cy="0" r="28" fill="#C41230" stroke="none"/>
</g>
</svg>